<?xml version="1.0" encoding="UTF-8"?>
<svg version="1.1" xmlns="http://www.w3.org/2000/svg" width="600" height="450">
<path d="M0 0 C0.33 0.66 0.66 1.32 1 2 C1.85464844 1.70996094 1.85464844 1.70996094 2.7265625 1.4140625 C7.00804801 0.63427304 10.49313861 2.65198035 14 5 C18.28895836 9.93853089 21.10779605 14.83087038 21.15263176 21.44857883 C21.1611897 22.36451803 21.16974764 23.28045722 21.17856491 24.22415215 C21.18295361 25.23191183 21.18734232 26.23967151 21.19186401 27.27796936 C21.20456272 28.88219219 21.20456272 28.88219219 21.21751797 30.51882356 C21.24469236 34.12068654 21.26470242 37.72255324 21.28466797 41.32446289 C21.3024249 43.89978275 21.32054571 46.47510012 21.33900452 49.05041504 C21.3931366 56.79266336 21.43747232 64.53495569 21.48005313 72.277275 C21.49214325 74.46465053 21.50448415 76.65202451 21.51691294 78.83939815 C21.59407234 92.42660453 21.66797376 106.01382456 21.73234367 119.60109806 C21.74730341 122.7483071 21.76229685 125.89551598 21.77734375 129.04272461 C21.78108042 129.82493669 21.78481708 130.60714876 21.78866698 131.41306423 C21.8497366 144.07740926 21.9314738 156.7415335 22.0217049 169.40570087 C22.11402013 182.41221596 22.18727011 195.41873078 22.24207985 208.42545885 C22.27333009 215.72640779 22.31295013 223.0271016 22.37401962 230.32786751 C22.4314429 237.19867699 22.46309406 244.06919069 22.47743034 250.94022369 C22.48681799 253.45972645 22.50480651 255.97921435 22.53211021 258.49858665 C22.56812768 261.94381675 22.57288923 265.38775887 22.57003784 268.83314514 C22.58781088 269.82528977 22.60558391 270.8174344 22.62389553 271.83964401 C22.56659555 279.39115939 20.62496818 286.05025827 15.41555679 291.726399 C11.66340137 295 11.66340137 295 9 295 C8.67 295.66 8.34 296.32 8 297 C-25.96315537 297.02287324 -59.92630882 297.04050173 -93.88947018 297.05106533 C-97.89628417 297.05231608 -101.90309814 297.0536104 -105.90991211 297.05493164 C-107.10647293 297.05532511 -107.10647293 297.05532511 -108.32720669 297.05572652 C-121.255002 297.06008154 -134.18279287 297.06796817 -147.11058555 297.0771528 C-160.36903525 297.086494 -173.62748263 297.0920566 -186.88593549 297.09408849 C-195.07154022 297.09546275 -203.25713243 297.0998081 -211.44273331 297.10791647 C-217.7123218 297.11381172 -223.98190067 297.11445777 -230.25149155 297.11310768 C-232.82871134 297.11338384 -235.40593159 297.11538681 -237.98314857 297.11920547 C-241.48974481 297.12414836 -244.99628654 297.12299603 -248.50288391 297.12025452 C-250.04810092 297.12462378 -250.04810092 297.12462378 -251.62453443 297.12908131 C-252.56057419 297.12709026 -253.49661396 297.12509921 -254.46101856 297.12304783 C-255.67593376 297.12361741 -255.67593376 297.12361741 -256.9153927 297.1241985 C-259 297 -259 297 -262 296 C-262 295.34 -262 294.68 -262 294 C-261.01 294 -260.02 294 -259 294 C-259 293.01 -259 292.02 -259 291 C-260.093125 290.896875 -261.18625 290.79375 -262.3125 290.6875 C-266 290 -266 290 -267.9375 288.9375 C-269.69959328 285.72427107 -269.17782537 282.6157826 -269 279 C-269.66 278.67 -270.32 278.34 -271 278 C-271.33 278.99 -271.66 279.98 -272 281 C-272.66 281 -273.32 281 -274 281 C-274.09155698 247.35974053 -274.16203944 213.71951207 -274.20426132 180.07915568 C-274.20926414 176.10753913 -274.21444143 172.13592282 -274.21972656 168.16430664 C-274.2207758 167.3736299 -274.22182505 166.58295316 -274.22290608 165.76831651 C-274.24031096 152.96605167 -274.2718491 140.16385867 -274.30861118 127.36163645 C-274.34601831 114.22521298 -274.36823537 101.08882713 -274.37635398 87.95235258 C-274.38184224 79.846521 -274.39917587 71.74089251 -274.43166587 63.63512344 C-274.45531076 57.4194224 -274.45782041 51.20387617 -274.45243073 44.98813629 C-274.45353233 42.43838564 -274.46150427 39.88862738 -274.4768219 37.3389225 C-274.49670052 33.85973327 -274.49194596 30.3814155 -274.48101807 26.90220642 C-274.49266943 25.89149501 -274.5043208 24.8807836 -274.51632524 23.83944458 C-274.45741551 16.90834715 -273.22687863 12.52536491 -268.4375 7.29296875 C-264.08307306 3.94431977 -261.00628212 1.74854886 -255.44729233 1.75390434 C-254.07682176 1.7479312 -254.07682176 1.7479312 -252.67866492 1.74183738 C-251.67866973 1.74766307 -250.67867454 1.75348875 -249.64837646 1.75949097 C-248.0506645 1.75692769 -248.0506645 1.75692769 -246.42067552 1.75431263 C-242.83995292 1.75100985 -239.25941636 1.76203456 -235.67871094 1.77294922 C-233.11657719 1.77351316 -230.55444313 1.77319711 -227.99230957 1.77206421 C-222.47022878 1.77160829 -216.94820824 1.77729307 -211.42613983 1.78853989 C-203.44215775 1.80479031 -195.45819853 1.81000242 -187.47420171 1.81251587 C-174.52087412 1.81689369 -161.56757172 1.83020516 -148.61425781 1.84912109 C-136.03092576 1.86747764 -123.44760055 1.88163525 -110.86425781 1.89013672 C-110.08868986 1.89066217 -109.3131219 1.89118761 -108.51405188 1.89172898 C-104.62327594 1.89433905 -100.73249995 1.89686647 -96.84172392 1.89935279 C-64.56113098 1.920088 -32.28056898 1.95531591 0 2 C0 1.34 0 0.68 0 0 Z " fill="#831349" transform="translate(426,76)"/>
<path d="M0 0 C1.16789062 0.65355469 1.16789062 0.65355469 2.359375 1.3203125 C12.57630113 7.59446512 19.2523987 16.85699186 22.375 28.4375 C24.11108906 37.9192172 22.15922663 47.70128974 16.84667969 55.74658203 C12.67533431 61.56588422 7.72909738 66.5017292 2.625 71.5 C1.79355469 72.32242188 0.96210938 73.14484375 0.10546875 73.9921875 C-1.92515982 75.99947551 -3.96033167 78.00190534 -6 80 C-1.06704856 85.96636844 4.29950383 91.38297085 9.8125 96.8125 C11.52962153 98.50420152 13.24458282 100.19809948 14.95703125 101.89453125 C15.70960205 102.63550049 16.46217285 103.37646973 17.23754883 104.13989258 C19.49779275 106.52537512 19.95442532 107.5807129 20.3125 110.875 C20 114 20 114 18.375 116.375 C16 118 16 118 13.25 118.6875 C5.83310123 117.11854064 -0.17274126 108.97338584 -5.40991211 103.71948242 C-6.10197754 103.02916931 -6.79404297 102.3388562 -7.50708008 101.62762451 C-9.76633596 99.37272737 -12.02196499 97.11424333 -14.27734375 94.85546875 C-15.85520576 93.27828104 -17.43321613 91.70124174 -19.0113678 90.12434387 C-22.30355761 86.83362252 -25.59394621 83.5411136 -28.88305664 80.24731445 C-33.10545682 76.01918926 -37.3323685 71.79560713 -41.56061459 67.57332897 C-44.81280405 64.32474415 -48.06261907 61.07379244 -51.31170845 57.82210732 C-52.87035219 56.26279549 -54.42974186 54.70422892 -55.98988152 53.1464138 C-58.16096099 50.97786227 -60.32882902 48.80615144 -62.49584961 46.63354492 C-63.14358841 45.98783035 -63.79132721 45.34211578 -64.45869446 44.67683411 C-69.73878269 39.37139087 -69.73878269 39.37139087 -70.5 35.375 C-69.95602837 31.70319153 -69.42201135 31.00145505 -67.01953125 28.35546875 C-66.38289551 27.65389648 -65.74625977 26.95232422 -65.09033203 26.22949219 C-61.50958767 22.4103661 -57.87672316 18.65192708 -54.1875 14.9375 C-53.44435547 14.17373047 -52.70121094 13.40996094 -51.93554688 12.62304688 C-37.85410943 -1.55542028 -19.2337514 -10.82739152 0 0 Z " fill="#FEFBFE" transform="translate(298,162)"/>
<path d="M0 0 C3.76974686 1.91019803 6.37405977 4.17032855 7.76171875 8.2265625 C8.33261106 11.89746145 8.26308149 14.34229626 6.875 17.8125 C4.7746778 20.2628759 2.65352726 22.16294267 0 24 C-0.66 24 -1.32 24 -2 24 C-2 28.29 -2 32.58 -2 37 C-0.35 37.33 1.3 37.66 3 38 C8.03868442 43.45857478 8.03868442 43.45857478 7.94921875 47.0234375 C7.86285156 47.79945313 7.77648437 48.57546875 7.6875 49.375 C7.56955078 50.53128906 7.56955078 50.53128906 7.44921875 51.7109375 C7 54 7 54 5 58 C10.94 63.94 16.88 69.88 23 76 C24.98 75.01 24.98 75.01 27 74 C30.48953142 72.25523429 34.19294187 72.42510867 38 73 C40.66617209 74.377155 41.92170069 75.71387076 44 78 C44.33 79.32 44.66 80.64 45 82 C49.95 82 54.9 82 60 82 C60.495 80.02 60.495 80.02 61 78 C64.22010498 74.36439761 65.8420246 73.09649795 70.75 72.6875 C75.14635228 72.74345357 77.63218282 74.11329956 81 77 C83.34781141 79.98812362 83.41825081 83.21911188 83.3203125 86.96875 C82.67779482 91.04325238 80.42857538 93.87754791 77.25 96.375 C73.73001989 97.35277225 70.56446511 97.77517178 67 97 C63.12788612 94.64854387 60.44417321 92.33251964 59 88 C52.07 87.505 52.07 87.505 45 87 C44.67 88.65 44.34 90.3 44 92 C41.70614672 94.75262393 40.42647711 95.85784096 37 97 C31.98896872 97.3711875 29.00871501 97.11788946 25 94 C22.35137592 91.44947311 21.9292008 89.51369935 21.515625 86.0078125 C20.05984318 79.24138761 15.24073114 75.18237342 10.4375 70.5 C9.56802734 69.59507812 8.69855469 68.69015625 7.80273438 67.7578125 C2.38705345 62.23306321 2.38705345 62.23306321 -4.77734375 60.03125 C-5.44886475 60.04736328 -6.12038574 60.06347656 -6.81225586 60.08007812 C-9 60 -9 60 -15 58 C-15 63.61 -15 69.22 -15 75 C-13.515 74.01 -13.515 74.01 -12 73 C-7.15589909 72.26347004 -2.23492468 72.00543961 2.30859375 74.02734375 C5.8684728 76.69910328 7.41105875 79.161089 8.125 83.5625 C8.25903255 87.55666986 7.65997412 89.89669686 5 93 C1.78071602 96.04984798 -0.57649669 97.49445676 -5 98 C-5 97.34 -5 96.68 -5 96 C-4.01 96 -3.02 96 -2 96 C-2 95.01 -2 94.02 -2 93 C-3.093125 92.896875 -4.18625 92.79375 -5.3125 92.6875 C-9 92 -9 92 -10.9375 90.9375 C-12.69959328 87.72427107 -12.17782537 84.6157826 -12 81 C-12.66 80.67 -13.32 80.34 -14 80 C-14.33 80.99 -14.66 81.98 -15 83 C-15.66 83 -16.32 83 -17 83 C-17 57.92 -17 32.84 -17 7 C-16.34 7 -15.68 7 -15 7 C-14.773125 6.401875 -14.54625 5.80375 -14.3125 5.1875 C-11.17764912 -0.03725147 -5.75537047 -1.30556608 0 0 Z " fill="#FBF2F9" transform="translate(169,274)"/>
<path d="M0 0 C7.08138153 4.03023965 12.44940095 10.10082687 14.6875 18 C15.77596302 26.62209472 14.40322336 32.70711028 9.6875 40 C6.62694489 43.60564618 3.29915237 46.86682071 -0.125 50.125 C-1.00865234 50.98609375 -1.89230469 51.8471875 -2.80273438 52.734375 C-4.96160316 54.83489598 -7.13128105 56.92274001 -9.3125 59 C-14.29842875 54.82222235 -18.97954284 50.46872723 -23.55859375 45.8515625 C-24.21457047 45.19417084 -24.87054718 44.53677917 -25.54640198 43.85946655 C-27.61665268 41.78367138 -29.68337651 39.70440573 -31.75 37.625 C-33.16317862 36.2067992 -34.57658794 34.78882824 -35.99023438 33.37109375 C-39.43366065 29.91671223 -42.87393099 26.4592163 -46.3125 23 C-42.16987321 18.13258935 -37.96518938 13.38744822 -33.5 8.8125 C-32.93474609 8.20986328 -32.36949219 7.60722656 -31.78710938 6.98632812 C-23.10438438 -1.87141261 -11.6950257 -5.24321061 0 0 Z " fill="#821449" transform="translate(291.3125,174)"/>
<path d="M0 0 C0.33 0.66 0.66 1.32 1 2 C1.56976563 1.80664062 2.13953125 1.61328125 2.7265625 1.4140625 C7.00804801 0.63427304 10.49313861 2.65198035 14 5 C18.38957023 10.05438066 21.11460187 14.95802766 21.14526367 21.71508789 C21.15164352 22.66940201 21.15802338 23.62371613 21.16459656 24.60694885 C21.16570938 25.63513229 21.1668222 26.66331573 21.16796875 27.72265625 C21.17296135 29.3072892 21.17296135 29.3072892 21.17805481 30.92393494 C21.18311841 33.15737472 21.18546331 35.39082206 21.18530273 37.62426758 C21.18749353 41.05237153 21.20566717 44.48015595 21.22460938 47.90820312 C21.22754247 50.07551973 21.22952783 52.24283787 21.23046875 54.41015625 C21.23765427 55.44036392 21.24483978 56.47057159 21.25224304 57.53199768 C21.24916641 58.48315964 21.24608978 59.43432159 21.24291992 60.41430664 C21.24434494 61.25353165 21.24576996 62.09275665 21.24723816 62.95741272 C21 65 21 65 19 67 C18.649375 66.525625 18.29875 66.05125 17.9375 65.5625 C15.14711187 63.31218699 12.51327373 63.36981829 9 63 C4.7650198 62.51992127 3.06050635 60.24914248 0.3125 57.125 C-0.47511719 56.24070313 -1.26273437 55.35640625 -2.07421875 54.4453125 C-2.50790771 53.9181665 -2.94159668 53.39102051 -3.38842773 52.84790039 C-5.04810498 50.88322396 -5.04810498 50.88322396 -7.30102539 48.83764648 C-14.38955466 41.58621094 -15.140492 35.56809945 -15.14648438 25.88085938 C-15.11946466 24.19139037 -15.09145808 22.50193689 -15.0625 20.8125 C-15.0655806 19.08006606 -15.07271062 17.34763437 -15.08398438 15.61523438 C-15.1026601 11.4087275 -15.06660991 7.20598545 -15 3 C-16.32 3 -17.64 3 -19 3 C-18.67 12.24 -18.34 21.48 -18 31 C-18.66 31 -19.32 31 -20 31 C-21.01286753 22.30019136 -21.10621544 13.74507107 -21 5 C-21.66 5 -22.32 5 -23 5 C-23 18.2 -23 31.4 -23 45 C-23.33 45 -23.66 45 -24 45 C-24.495 24.21 -24.495 24.21 -25 3 C-26.32 3.33 -27.64 3.66 -29 4 C-29.33 3.34 -29.66 2.68 -30 2 C-20.1 2 -10.2 2 0 2 C0 1.34 0 0.68 0 0 Z " fill="#821348" transform="translate(426,76)"/>
<path d="M0 0 C3.10352458 1.60923497 5.21701424 3.00347267 7.375 5.75 C8.82399408 10.96637867 8.70053657 14.64896519 6.25 19.375 C3 23.16666667 3 23.16666667 0 24 C-5.53632177 24.35151249 -7.66912229 24.13235109 -13 22 C-18.94 27.94 -24.88 33.88 -31 40 C-30.34 41.98 -29.68 43.96 -29 46 C-28.68371797 50.48471704 -29.46905308 53.32156783 -32.25 56.875 C-36.2083742 59.9337437 -38.45381946 61.02761037 -43.5 60.9375 C-48.52941373 59.59033561 -50.80641387 57.06164877 -53.375 52.625 C-54.22525499 49.05392904 -53.8888168 46.55526719 -53 43 C-50.56328726 39.08385453 -48.49604398 37.09903297 -44 36 C-43.37641602 36.0822583 -42.75283203 36.1645166 -42.11035156 36.24926758 C-38.20398692 36.7386684 -35.83174432 36.5460115 -32.48706055 34.3503418 C-29.83353335 32.00914536 -27.38107665 29.55921527 -24.9375 27 C-24.07189453 26.16082031 -23.20628906 25.32164062 -22.31445312 24.45703125 C-17.90244016 20.1801619 -17.90244016 20.1801619 -15.48754883 14.70629883 C-15.47613914 12.33052718 -15.47613914 12.33052718 -16 9 C-14.73732323 5.47779636 -13.64787596 3.55532225 -10.8125 1.125 C-7.13710961 -0.34515615 -3.86754897 -0.6887416 0 0 Z " fill="#FCF3FA" transform="translate(244,274)"/>
<path d="M0 0 C0.86504725 0.0023747 1.73009449 0.00474941 2.6213553 0.00719607 C5.52498381 0.01762728 8.42830929 0.04250556 11.33184814 0.06729126 C13.41122529 0.0777155 15.49060704 0.08725108 17.56999207 0.09596252 C23.22047971 0.1221618 28.8708221 0.1608278 34.52122021 0.20168638 C40.42422381 0.24226659 46.32728333 0.27144506 52.23034668 0.30181885 C63.41109177 0.3610883 74.59174831 0.43065227 85.77240968 0.50388968 C98.50014934 0.58676165 111.22794509 0.65819556 123.95575857 0.72865558 C150.14012428 0.87386679 176.32438167 1.03389042 202.50860596 1.20254517 C202.50860596 8.46254517 202.50860596 15.72254517 202.50860596 23.20254517 C200.47739888 20.15573456 200.26200721 19.60136193 200.31329346 16.19082642 C200.32296143 15.05484009 200.32296143 15.05484009 200.33282471 13.89590454 C200.35796143 12.71737915 200.35796143 12.71737915 200.38360596 11.51504517 C200.39262939 10.71776001 200.40165283 9.92047485 200.41094971 9.09902954 C200.43449011 7.13340616 200.47036049 5.16793742 200.50860596 3.20254517 C173.1011564 3.21634551 145.69387825 3.2585454 118.28652763 3.33463573 C105.56105504 3.36930164 92.83569095 3.39464337 80.11016846 3.39810181 C69.01971986 3.40113946 57.92946443 3.4216033 46.83909047 3.46306974 C40.96575712 3.48441928 35.09269853 3.49699017 29.21932602 3.48869896 C23.69198306 3.4811714 18.1651974 3.49692946 12.63795662 3.53060532 C10.60867136 3.53885413 8.57933085 3.53857031 6.55005074 3.52914238 C3.77954472 3.51754434 1.01087239 3.53660194 -1.75949097 3.56330872 C-2.56300401 3.55263546 -3.36651705 3.5419622 -4.19437897 3.53096551 C-9.94365623 3.63440376 -12.4727581 5.07486436 -16.49139404 9.20254517 C-16.82139404 9.86254517 -17.15139404 10.52254517 -17.49139404 11.20254517 C-18.15139404 11.20254517 -18.81139404 11.20254517 -19.49139404 11.20254517 C-19.49139404 72.58254517 -19.49139404 133.96254517 -19.49139404 197.20254517 C-18.50139404 197.53254517 -17.51139404 197.86254517 -16.49139404 198.20254517 C-17.77201889 199.91004496 -19.10906961 201.57628113 -20.49139404 203.20254517 C-21.15139404 203.20254517 -21.81139404 203.20254517 -22.49139404 203.20254517 C-22.5848367 178.68093875 -22.65537299 154.15935903 -22.69864273 129.63761044 C-22.71926766 118.2517241 -22.74738707 106.86594839 -22.79315186 95.48013306 C-22.83302158 85.55621901 -22.85882736 75.63238507 -22.86774802 65.70839316 C-22.87296251 60.45372287 -22.88521723 55.1992818 -22.91431427 49.94468498 C-22.94148537 44.99776195 -22.94983555 40.05116232 -22.94382477 35.10417175 C-22.94492424 33.28974207 -22.952868 31.47530146 -22.96821594 29.66093636 C-22.98817071 27.18006157 -22.98331374 24.70040163 -22.97241211 22.21949768 C-22.98406348 21.50449834 -22.99571484 20.78949901 -23.00771928 20.05283302 C-22.93666233 14.05454546 -20.970181 9.91061992 -16.92889404 5.49551392 C-11.03578905 0.96358806 -7.43420344 -0.08925239 0 0 Z " fill="#791A48" transform="translate(174.49139404296875,77.79745483398438)"/>
<path d="M0 0 C0.99 0 1.98 0 3 0 C3.83927829 5.00763961 4.06488748 9.76918372 3.9296875 14.84765625 C2.76481032 32.77837275 2.76481032 32.77837275 8.9543457 48.74023438 C10.45732692 50.26909222 11.98276544 51.77080565 13.51953125 53.265625 C17.55014306 57.70881912 17.34097355 62.07317473 17.07910156 67.85693359 C16.98434137 70.42423281 17.00172217 72.98185752 17.0234375 75.55078125 C17.06357155 80.70131826 17.04792109 85.84958866 17 91 C18.19496094 91.44279297 18.19496094 91.44279297 19.4140625 91.89453125 C22 93 22 93 23.375 94.6875 C24.29990235 98.1096387 23.85466454 100.58134185 23 104 C20.77716931 107.24875254 19.38018818 107.89631231 15.5625 108.9375 C11.55596849 109.00779003 10.05645482 108.53249114 7 106 C4.89898405 103.3259797 5.00153024 101.95715315 5.125 98.5 C6.07434228 94.70263089 6.97252291 93.38528498 10 91 C10.99 90.505 10.99 90.505 12 90 C12.05434139 85.12135119 12.04808474 80.247797 11.99902344 75.36914062 C11.9999331 73.16229898 12.07350356 70.97026684 12.1640625 68.765625 C12.26842399 63.04302117 12.30909594 58.60802336 8.51953125 53.953125 C7.5220492 52.95960252 6.51521759 51.97539254 5.5 51 C-0.24847078 45.34609438 -1.03971509 40.31378199 -1.1875 32.375 C-1.19872718 29.26043495 -1.16044183 26.15490179 -1.07470703 23.04150391 C-1.00271015 20.11033682 -1.0132591 17.19318967 -1.05859375 14.26171875 C-1.11896999 9.83439819 -1.17234563 5.4252275 -1 1 C-0.67 0.67 -0.34 0.34 0 0 Z " fill="#FBEFF9" transform="translate(398,79)"/>
<path d="M0 0 C2.97 0.495 2.97 0.495 6 1 C6.71615479 0.98839844 7.43230957 0.97679687 8.17016602 0.96484375 C13.61840135 0.89113891 16.39409764 2.76650964 20.40234375 6.375 C21.79297696 7.75676312 23.18326288 9.13937171 24.54125977 10.55322266 C25.93208765 11.99439175 27.36558882 13.39397065 28.79882812 14.79296875 C33.52214905 19.58729164 37.02280506 23.26938914 37.70874023 30.13110352 C38.17026576 33.09252672 40.03731406 34.84104547 42 37 C42 37.66 42 38.32 42 39 C34.08 39 26.16 39 18 39 C18.99 37.68 19.98 36.36 21 35 C22.13040884 30.19933967 22.64341048 25.62545806 20.8125 21 C18.18747035 18.10341556 16.33090694 16.16440615 12.34375 15.671875 C10.93609375 15.71054687 10.93609375 15.71054687 9.5 15.75 C8.5615625 15.76546875 7.623125 15.7809375 6.65625 15.796875 C3.74556032 15.94471038 3.74556032 15.94471038 0 17 C0 11.39 0 5.78 0 0 Z " fill="#801549" transform="translate(154,332)"/>
<path d="M0 0 C1.32 0 2.64 0 4 0 C4.62946961 6.0643859 5.07624274 12.01436899 4.859375 18.11328125 C4.58685982 28.92620213 4.45789374 37.42326682 12.1875 45.625 C13.85642894 47.27893428 15.55348645 48.86835009 17.31787109 50.41992188 C19.66383335 52.62356015 21.58850397 55.11207034 23.53637695 57.66845703 C25.41520988 59.37774056 26.50669637 59.35547392 29 59.25 C29.67160156 59.18296875 30.34320313 59.1159375 31.03515625 59.046875 C34.15362553 58.97247812 36.37114875 60.46116025 39 62 C39.33 62 39.66 62 40 62 C40 65.96 40 69.92 40 74 C36.20041395 76.61221541 33.51044388 78.41506615 28.8125 78.0625 C25 77 25 77 22.5 75.0625 C20.84806958 71.68980873 21.0547956 71.13224534 21.5625 67.625 C21.82070655 62.54440636 19.87503355 60.09114792 16.71166992 56.40063477 C13.09675338 52.40069752 9.47374793 48.43756754 5.61328125 44.671875 C-0.92781835 37.7056725 -0.05123764 28.985374 0 20 C-0.01119043 18.12889441 -0.02425099 16.25779918 -0.0390625 14.38671875 C-0.06638368 9.5903813 -0.04505804 4.79617796 0 0 Z " fill="#FCF2FA" transform="translate(407,79)"/>
<path d="M0 0 C1.32 0 2.64 0 4 0 C4.8755649 15.11756079 5.12621203 30.17187606 5.0625 45.3125 C5.05746564 47.43294163 5.05290622 49.55338444 5.04882812 51.67382812 C5.03799731 56.78258224 5.02084408 61.89127734 5 67 C5.62519531 67.14179688 6.25039063 67.28359375 6.89453125 67.4296875 C9.54367841 68.14726725 10.42109437 68.74442053 12 71 C13.00305755 74.86893627 13.3820015 77.09525961 11.8125 80.8125 C9.09160536 84.09633835 7.26812841 84.83811127 3.0625 85.375 C-0.7368243 84.90977662 -2.28638434 83.63608379 -5 81 C-6.41000664 78.17998673 -6.24548451 76.12992745 -6 73 C-4.75 70.1875 -4.75 70.1875 -3 68 C-0.890625 67.36328125 -0.890625 67.36328125 1 67 C0.96970703 65.96520508 0.93941406 64.93041016 0.90820312 63.86425781 C0.29171552 42.57007813 -0.17325329 21.30482395 0 0 Z " fill="#FAF0F8" transform="translate(387,79)"/>
<path d="M0 0 C0.99 0.33 1.98 0.66 3 1 C3.20474001 4.68667002 3.32809831 8.37186743 3.4375 12.0625 C3.49615234 13.10083984 3.55480469 14.13917969 3.61523438 15.20898438 C3.78471909 22.83579672 3.78471909 22.83579672 1.58642578 26.09716797 C-0.19902267 27.85551284 -2.04248548 29.43689862 -4 31 C-8.75185935 35.53966536 -9.59689491 38.65532464 -9.79492188 44.9921875 C-9.80072266 45.94351563 -9.80652344 46.89484375 -9.8125 47.875 C-9.83763672 48.84953125 -9.86277344 49.8240625 -9.88867188 50.828125 C-9.94727558 53.21915628 -9.98374991 55.60836847 -10 58 C-9.21625 58.268125 -8.4325 58.53625 -7.625 58.8125 C-5 60 -5 60 -3 63 C-2.53202417 67.21178243 -2.53434205 69.28599114 -4.875 72.875 C-7.39864652 75.39864652 -8.26736657 75.93487703 -11.8125 76.25 C-15.39154719 75.96929042 -17.14250017 75.12271416 -20 73 C-21.60233719 69.79532561 -21.49196274 66.47697993 -21 63 C-19.1875 60 -19.1875 60 -17 58 C-16.01 58 -15.02 58 -14 58 C-14.0721875 57.24976563 -14.144375 56.49953125 -14.21875 55.7265625 C-14.41325849 53.5815661 -14.58079196 51.43401503 -14.7265625 49.28515625 C-14.9264122 46.10330048 -14.9264122 46.10330048 -15.5234375 43.43359375 C-15.95814861 40.50170879 -15.97903482 38.82594768 -15 36 C-12.89461269 33.98652591 -10.78875661 32.11726903 -8.5625 30.25 C-3.98718427 26.3656528 -1.67103953 23.39057038 -0.94921875 17.3125 C-0.67594475 12.51063006 -0.733619 7.72816532 -0.99902344 2.92675781 C-0.9993457 2.29092773 -0.99966797 1.65509766 -1 1 C-0.67 0.67 -0.34 0.34 0 0 Z " fill="#FAEFF8" transform="translate(378,79)"/>
<path d="M0 0 C3.36910839 1.73085272 5.47384751 4.13070458 7.4375 7.375 C8.46194458 12.1557414 7.83042208 15.71141401 5.1875 19.8125 C1.91940511 23.08059489 0.19822947 23.89107005 -4.4375 24.3125 C-9.09354447 23.90407505 -11.43393824 22.51013099 -14.75 19.3125 C-16.5531353 15.97669969 -17.24599218 12.75499829 -17 9 C-13.10833229 1.36080042 -8.48205764 -1.57292923 0 0 Z " fill="#FCF3FA" transform="translate(207,274)"/>
<path d="M0 0 C3.41776957 2.44747058 5.55099986 5.13616488 6.54296875 9.25390625 C6.79737746 13.31756966 6.31194574 16.1738925 3.8125 19.4375 C-0.1169465 23.01766236 -2.1697482 24.06536614 -7.5 23.875 C-12.02215565 22.74446109 -14.58416845 20.95519596 -17.3125 17.1875 C-18.77491735 12.5343539 -18.5518878 9.10377561 -16.375 4.75 C-11.81860952 -0.52582056 -6.61067635 -2.54458574 0 0 Z " fill="#FCF2F9" transform="translate(246,311)"/>
<path d="M0 0 C1.32 1.65 2.64 3.3 4 5 C3.01 5 2.02 5 1 5 C1 10.61 1 16.22 1 22 C1.99 21.34 2.98 20.68 4 20 C8.84410091 19.26347004 13.76507532 19.00543961 18.30859375 21.02734375 C21.8684728 23.69910328 23.41105875 26.161089 24.125 30.5625 C24.25903255 34.55666986 23.65997412 36.89669686 21 40 C17.78071602 43.04984798 15.42350331 44.49445676 11 45 C11 44.34 11 43.68 11 43 C11.99 43 12.98 43 14 43 C14 42.01 14 41.02 14 40 C12.906875 39.896875 11.81375 39.79375 10.6875 39.6875 C7 39 7 39 5.0625 37.9375 C3.30040672 34.72427107 3.82217463 31.6157826 4 28 C3.34 27.67 2.68 27.34 2 27 C1.67 27.99 1.34 28.98 1 30 C0.34 30 -0.32 30 -1 30 C-1.0246985 26.04900072 -1.04285923 22.09803126 -1.05493164 18.14697266 C-1.06244036 16.14093449 -1.0751447 14.13491798 -1.08789062 12.12890625 C-1.09111328 10.87207031 -1.09433594 9.61523438 -1.09765625 8.3203125 C-1.10289307 7.15773926 -1.10812988 5.99516602 -1.11352539 4.79736328 C-1 2 -1 2 0 0 Z " fill="#811C4D" transform="translate(153,327)"/>
<path d="M0 0 C0.66 0.33 1.32 0.66 2 1 C2.20066656 27.34690664 2.38396939 53.69388453 2.54658794 80.04105473 C2.6224992 92.27443181 2.70409724 104.50772164 2.79907227 116.7409668 C2.88183567 127.40315244 2.95393995 138.06534769 3.01323253 148.72769064 C3.04500159 154.37359204 3.08211608 160.01934439 3.13199425 165.66511726 C3.1787776 170.97964354 3.21130252 176.29406682 3.2329216 181.6087532 C3.24336151 183.55865567 3.25899834 185.50853835 3.28024101 187.45835304 C3.30848969 190.12289603 3.3179478 192.78687965 3.32279968 195.45155334 C3.33542916 196.22102596 3.34805863 196.99049857 3.36107081 197.78328854 C3.34340569 202.89935773 2.28735139 206.41591172 0 211 C-0.66 211 -1.32 211 -2 211 C-1.83748025 210.3447852 -1.6749605 209.68957041 -1.50751591 209.01450062 C-0.87427007 205.25319986 -0.86531963 201.56911589 -0.87974548 197.76799011 C-0.87846385 196.53039089 -0.87846385 196.53039089 -0.87715632 195.26778966 C-0.87551035 192.50557135 -0.88100845 189.74341388 -0.88647461 186.98120117 C-0.8867567 185.00019329 -0.88659832 183.01918531 -0.8860321 181.03817749 C-0.88574497 175.66053676 -0.89162813 170.28291829 -0.89860606 164.90528274 C-0.90485359 159.28518903 -0.90544451 153.66509482 -0.90663147 148.04499817 C-0.90974065 137.40266158 -0.91794849 126.76033526 -0.92798096 116.11800319 C-0.93915491 104.00203691 -0.94465578 91.88607015 -0.94967639 79.7701 C-0.96013143 54.84672764 -0.9777229 29.9233644 -1 5 C-2.32 4.67 -3.64 4.34 -5 4 C-4.360625 3.71125 -3.72125 3.4225 -3.0625 3.125 C-0.84793921 2.17176549 -0.84793921 2.17176549 0 0 Z " fill="#7E1F4D" transform="translate(445,152)"/>
<path d="M0 0 C0.99 0 1.98 0 3 0 C3.8392793 5.00764567 4.06485224 9.76917989 3.9296875 14.84765625 C2.74159166 32.76331061 2.74159166 32.76331061 9.00561523 48.64257812 C10.02894236 49.65804214 11.06341989 50.66241347 12.10961914 51.65429688 C15.75208786 55.16656929 16.7088022 57.48167432 16.86889648 62.38598633 C16.7322 67.66152366 16.24470966 72.18726859 14 77 C11.93388538 73.8405329 11.92306043 71.32882926 12.02734375 67.62304688 C12.12135307 62.11305593 12.0590019 58.3266801 8.52734375 53.90234375 C7.52826639 52.92453388 6.51879444 51.95724897 5.5 51 C-0.25357446 45.35469173 -1.03983893 40.30712927 -1.1875 32.375 C-1.19872718 29.26043495 -1.16044183 26.15490179 -1.07470703 23.04150391 C-1.00271015 20.11033682 -1.0132591 17.19318967 -1.05859375 14.26171875 C-1.11896999 9.83439819 -1.17234563 5.4252275 -1 1 C-0.67 0.67 -0.34 0.34 0 0 Z " fill="#F7E9F3" transform="translate(398,79)"/>
<path d="M0 0 C4.48688907 0.5278693 7.73727501 1.29491 12 3 C12 6.96 12 10.92 12 15 C8.20041395 17.61221541 5.51044388 19.41506615 0.8125 19.0625 C-3 18 -3 18 -5.5 15.875 C-7.33014743 12.36721742 -7.30615 9.90341251 -7 6 C-6.01 6.495 -6.01 6.495 -5 7 C-2.30305165 5.89858275 -2.30305165 5.89858275 0 4 C0 2.68 0 1.36 0 0 Z " fill="#FBF0F9" transform="translate(435,138)"/>
<path d="M0 0 C1.46484375 1.23697917 2.9296875 2.47395833 4.39453125 3.7109375 C5.8655046 4.89201099 7.43037794 5.95358529 9 7 C9.29296875 10.0390625 9.29296875 10.0390625 9.1875 13.625 C9.16042969 14.81351562 9.13335937 16.00203125 9.10546875 17.2265625 C9.07066406 18.14179688 9.03585938 19.05703125 9 20 C8.071875 20.4125 7.14375 20.825 6.1875 21.25 C3.11945319 22.93441786 1.80959535 24.08454083 0 27 C-1.29776917 24.40446166 -1.12950035 22.49294473 -1.1328125 19.58984375 C-1.13410156 18.51798828 -1.13539063 17.44613281 -1.13671875 16.34179688 C-1.13285156 15.21837891 -1.12898437 14.09496094 -1.125 12.9375 C-1.12886719 11.81021484 -1.13273438 10.68292969 -1.13671875 9.52148438 C-1.13542969 8.45091797 -1.13414062 7.38035156 -1.1328125 6.27734375 C-1.13168457 5.28984131 -1.13055664 4.30233887 -1.12939453 3.28491211 C-1 1 -1 1 0 0 Z " fill="#7F1548" transform="translate(153,291)"/>
<path d="M0 0 C12.70616785 -0.91729019 12.70616785 -0.91729019 15.78515625 1.265625 C16.8125 2.875 16.8125 2.875 18 6 C18.33 6.66 18.66 7.32 19 8 C18.67 8.66 18.34 9.32 18 10 C10.74 10 3.48 10 -4 10 C-3.01 7.69 -2.02 5.38 -1 3 C-0.67 2.01 -0.34 1.02 0 0 Z " fill="#821B4D" transform="translate(214,361)"/>
<path d="M0 0 C2.56809203 2.80885066 3 4.32615149 3 8.125 C2 11 2 11 -0.1875 12.9375 C-3.67591542 14.25534582 -5.46688262 14.15210349 -9 13 C-10.9375 11.375 -10.9375 11.375 -12 9 C-11.93439072 5.260271 -11.76345433 2.9396361 -9.375 0 C-5.85025855 -1.48410166 -3.63189024 -1.05654989 0 0 Z " fill="#7E1C4B" transform="translate(207,316)"/>
<path d="M0 0 C1.9375 1.625 1.9375 1.625 3 4 C3 7.5625 3 7.5625 2 11 C-0.61081072 13.32072064 -2.07227035 14 -5.5625 14 C-8.88419806 12.63725208 -10.1835062 11.07406644 -12 8 C-11.92821445 4.98500702 -11.47278442 3.57556364 -9.5625 1.25 C-6.1892107 -1.44863144 -4.11543056 -1.09184892 0 0 Z " fill="#7D1949" transform="translate(169,316)"/>
<path d="M0 0 C2.5 2.125 2.5 2.125 4 5 C3.936318 8.18409977 3.51040601 10.14932332 1.875 12.875 C-1.20515368 14.72309221 -3.50442383 14.49060718 -7 14 C-9.5 11.875 -9.5 11.875 -11 9 C-10.936318 5.81590023 -10.51040601 3.85067668 -8.875 1.125 C-5.79484632 -0.72309221 -3.49557617 -0.49060718 0 0 Z " fill="#7C1848" transform="translate(206,352)"/>
<path d="M0 0 C4.36689189 1.42398649 4.36689189 1.42398649 5.875 3.9375 C6.375 7.375 6.375 7.375 5.875 10.9375 C3.75 13.4375 3.75 13.4375 0.875 14.9375 C-2.64897438 14.9375 -4.36775308 14.61902223 -7 12.25 C-8.49794243 9.17089611 -8.68883235 7.32049409 -8.125 3.9375 C-5.43583153 0.85286557 -4.12776368 -0.08255527 0 0 Z " fill="#7C1948" transform="translate(241.125,315.0625)"/>
<path d="M0 0 C2.5 2.125 2.5 2.125 4 5 C3.936318 8.18409977 3.51040601 10.14932332 1.875 12.875 C-1.20515368 14.72309221 -3.50442383 14.49060718 -7 14 C-9.5 11.875 -9.5 11.875 -11 9 C-10.936318 5.81590023 -10.51040601 3.85067668 -8.875 1.125 C-5.79484632 -0.72309221 -3.49557617 -0.49060718 0 0 Z " fill="#7B1848" transform="translate(206,279)"/>
<path d="M0 0 C1.9375 1 1.9375 1 3 3 C3.45982357 5.75894141 3.51068558 8.24574069 3 11 C0.81246717 13.6923481 -0.58423955 13.93936827 -4 14.4375 C-7 14 -7 14 -9.375 12.375 C-11.48706506 9.28813568 -11.61195145 7.6717087 -11 4 C-8.05323917 -0.47907646 -5.13567732 -0.65363166 0 0 Z " fill="#7D1949" transform="translate(244,352)"/>
<path d="M0 0 C1.9375 1 1.9375 1 3 3 C3.45982357 5.75894141 3.51068558 8.24574069 3 11 C0.81246717 13.6923481 -0.58423955 13.93936827 -4 14.4375 C-7 14 -7 14 -9.375 12.375 C-11.48706506 9.28813568 -11.61195145 7.6717087 -11 4 C-8.05323917 -0.47907646 -5.13567732 -0.65363166 0 0 Z " fill="#7C1A49" transform="translate(244,279)"/>
<path d="M0 0 C2.4375 1.625 2.4375 1.625 4 4 C4.61195145 7.6717087 4.48706506 9.28813568 2.375 12.375 C-0.69477548 14.4753727 -2.34556561 14.53293835 -6 14 C-8.375 13 -8.375 13 -10 11 C-10.66300779 7.42422767 -10.65930485 4.24104443 -8.9375 1 C-5.82090489 -0.60856522 -3.43737531 -0.42213381 0 0 Z " fill="#811449" transform="translate(168,279)"/>
<path d="M0 0 C3.77421811 1.88710905 6.37775174 4.18112047 7.76171875 8.2265625 C8.34701979 11.99011115 8.2812952 14.35302103 6.75 17.875 C3.52112676 21.79577465 3.52112676 21.79577465 2 23 C1.01 23 0.02 23 -1 23 C-1.1875 20.6875 -1.1875 20.6875 -1 18 C-0.505 17.525625 -0.01 17.05125 0.5 16.5625 C2.31748721 14.99780337 2.31748721 14.99780337 2.25 12 C2.11489313 8.95076009 2.11489313 8.95076009 1 6 C-2.3 6 -5.6 6 -9 6 C-9.33 4.35 -9.66 2.7 -10 1 C-6.72334186 -0.63832907 -3.52785211 -0.64719589 0 0 Z " fill="#FBF1F9" transform="translate(169,347)"/>
<path d="M0 0 C0.33 0.66 0.66 1.32 1 2 C2.32 1.67 3.64 1.34 5 1 C5.495 1.99 5.495 1.99 6 3 C-2.25 3 -10.5 3 -19 3 C-18.67 12.24 -18.34 21.48 -18 31 C-18.66 31 -19.32 31 -20 31 C-21.01286753 22.30019136 -21.10621544 13.74507107 -21 5 C-21.66 5 -22.32 5 -23 5 C-23 18.2 -23 31.4 -23 45 C-23.33 45 -23.66 45 -24 45 C-24.495 24.21 -24.495 24.21 -25 3 C-26.32 3.33 -27.64 3.66 -29 4 C-29.33 3.34 -29.66 2.68 -30 2 C-20.1 2 -10.2 2 0 2 C0 1.34 0 0.68 0 0 Z " fill="#812E57" transform="translate(426,76)"/>
<path d="M0 0 C0 6.6 0 13.2 0 20 C-0.33 20 -0.66 20 -1 20 C-1.33 14.06 -1.66 8.12 -2 2 C-2.66 2 -3.32 2 -4 2 C-4 22.46 -4 42.92 -4 64 C-4.33 64 -4.66 64 -5 64 C-5.14577868 58.26073975 -5.28798802 52.52140459 -5.42724609 46.78198242 C-5.47482809 44.83990236 -5.52329438 42.8978437 -5.57275391 40.95581055 C-5.91970697 27.30072932 -6.06332358 13.65942371 -6 0 C-4 -1 -4 -1 0 0 Z " fill="#721D46" transform="translate(397,79)"/>
<path d="M0 0 C1.32 1.65 2.64 3.3 4 5 C3.01 5 2.02 5 1 5 C1 10.61 1 16.22 1 22 C1.99 21.34 2.98 20.68 4 20 C6.1875 20.375 6.1875 20.375 8 21 C7.34 21 6.68 21 6 21 C6.66 22.32 7.32 23.64 8 25 C9.98 25 11.96 25 14 25 C14 25.33 14 25.66 14 26 C13.2575 25.979375 12.515 25.95875 11.75 25.9375 C8.87605673 26.72134074 8.87605673 26.72134074 7.77734375 29.0703125 C6.77653611 31.3588977 5.84934229 33.65126015 5 36 C4.67 36 4.34 36 4 36 C4 33.36 4 30.72 4 28 C3.34 27.67 2.68 27.34 2 27 C1.67 27.99 1.34 28.98 1 30 C0.34 30 -0.32 30 -1 30 C-1.0246985 26.04900072 -1.04285923 22.09803126 -1.05493164 18.14697266 C-1.06244036 16.14093449 -1.0751447 14.13491798 -1.08789062 12.12890625 C-1.09111328 10.87207031 -1.09433594 9.61523438 -1.09765625 8.3203125 C-1.10289307 7.15773926 -1.10812988 5.99516602 -1.11352539 4.79736328 C-1 2 -1 2 0 0 Z " fill="#7D2650" transform="translate(153,327)"/>
<path d="M0 0 C2 3 2 3 1.875 5.9375 C0.88410094 9.40564671 -0.23957303 10.74146884 -3 13 C-5.85324437 14.42662219 -7.83454549 14.31033868 -11 14 C-13.69990662 12.20006226 -15.5418865 10.916227 -17 8 C-17.039992 6.00039988 -17.04346799 3.99952758 -17 2 C-16.01 2 -15.02 2 -14 2 C-14 3.65 -14 5.3 -14 7 C-10.89782379 8.83832664 -8.60591321 9.47446226 -5 9 C-4.34 8.01 -3.68 7.02 -3 6 C-2.34 6 -1.68 6 -1 6 C-0.67 4.02 -0.34 2.04 0 0 Z " fill="#FCF0FA" transform="translate(398,150)"/>
<path d="M0 0 C0.66 0.33 1.32 0.66 2 1 C2.0505894 7.79928419 2.08568667 14.5985201 2.10986328 21.39794922 C2.11993892 23.71242079 2.13359975 26.02687959 2.15087891 28.34130859 C2.17505865 31.66246693 2.1864673 34.9834574 2.1953125 38.3046875 C2.20563507 39.34430634 2.21595764 40.38392517 2.22659302 41.45504761 C2.22674408 42.41589264 2.22689514 43.37673767 2.22705078 44.36669922 C2.231492 45.21497284 2.23593323 46.06324646 2.24050903 46.93722534 C2 49 2 49 0 51 C-0.98130583 48.05608252 -1.09389457 46.30820355 -1.02172852 43.25317383 C-1.00163223 42.29240433 -0.98153595 41.33163483 -0.96083069 40.3417511 C-0.93379562 39.30729355 -0.90676056 38.272836 -0.87890625 37.20703125 C-0.84348976 35.61528328 -0.84348976 35.61528328 -0.80735779 33.99137878 C-0.73071549 30.5982833 -0.64669324 27.20541571 -0.5625 23.8125 C-0.5092799 21.51368307 -0.4565395 19.21485498 -0.40429688 16.91601562 C-0.27509954 11.2772024 -0.1398408 5.63855877 0 0 Z " fill="#7D204D" transform="translate(445,92)"/>
<path d="M0 0 C2.4375 0.75 2.4375 0.75 4.4375 2.75 C4.8008156 5.58386167 4.7943671 7.15522151 3.3125 9.625 C1.4375 10.75 1.4375 10.75 -1.625 10.625 C-4.5625 9.75 -4.5625 9.75 -6.5625 6.75 C-6.375 4.1875 -6.375 4.1875 -5.5625 1.75 C-2.5625 -0.25 -2.5625 -0.25 0 0 Z " fill="#7B1D4A" transform="translate(413.5625,173.25)"/>
<path d="M0 0 C2.375 0.875 2.375 0.875 4.375 3.875 C4.0508631 7.19740324 3.76723697 8.48276303 1.375 10.875 C-1.47102594 11.23987512 -3.0114306 11.27699375 -5.4375 9.6875 C-7.06552002 7.20262734 -7.13475499 5.78788568 -6.625 2.875 C-4.39928105 0.40197895 -3.34204055 -0.15914479 0 0 Z " fill="#7B1D4A" transform="translate(391.625,149.125)"/>
<path d="M0 0 C2.9375 0.875 2.9375 0.875 4.9375 3.875 C4.75 6.4375 4.75 6.4375 3.9375 8.875 C0.9375 10.875 0.9375 10.875 -1.625 10.625 C-4.0625 9.875 -4.0625 9.875 -6.0625 7.875 C-6.4258156 5.04113833 -6.4193671 3.46977849 -4.9375 1 C-3.0625 -0.125 -3.0625 -0.125 0 0 Z " fill="#7A1C4A" transform="translate(438.0625,142.125)"/>
<path d="M0 0 C2.4375 0.8125 2.4375 0.8125 4.4375 3.8125 C4.1133631 7.13490324 3.82973697 8.42026303 1.4375 10.8125 C-1 11.1875 -1 11.1875 -3.5625 10.8125 C-5.4375 9.125 -5.4375 9.125 -6.5625 6.8125 C-6.4375 4.1875 -6.4375 4.1875 -5.5625 1.8125 C-2.5625 -0.1875 -2.5625 -0.1875 0 0 Z " fill="#722349" transform="translate(366.5625,140.1875)"/>
<path d="M0 0 C1.32 0 2.64 0 4 0 C4.99263429 9.35912329 5.10731538 18.60394198 5 28 C4.67 28 4.34 28 4 28 C3.67 24.7 3.34 21.4 3 18 C2.01 18.66 1.02 19.32 0 20 C0 13.4 0 6.8 0 0 Z " fill="#F6E0ED" transform="translate(407,79)"/>
<path d="M0 0 C0 0.66 0 1.32 0 2 C-1.7634375 2.495 -1.7634375 2.495 -3.5625 3 C-7.97521794 4.66153127 -10.16558717 7.03807731 -13.0546875 10.6796875 C-16.10076818 14.31296446 -19.65386641 17.41726957 -23.15625 20.60546875 C-25.32487336 22.86882919 -25.32487336 22.86882919 -24.78125 25.80078125 C-24.5234375 26.52652344 -24.265625 27.25226563 -24 28 C-25.65 26.35 -27.3 24.7 -29 23 C-26.27143416 20.19680999 -23.53275595 17.40393076 -20.78466797 14.61987305 C-19.39666441 13.20951335 -18.01662075 11.79133416 -16.63671875 10.37304688 C-15.75371094 9.48037109 -14.87070312 8.58769531 -13.9609375 7.66796875 C-12.75123291 6.43469849 -12.75123291 6.43469849 -11.51708984 5.17651367 C-7.95905632 2.09990176 -4.77323843 0 0 0 Z " fill="#761D49" transform="translate(274,173)"/>
<path d="M0 0 C7.26 0 14.52 0 22 0 C22 0.33 22 0.66 22 1 C15.4 1.33 8.8 1.66 2 2 C2.33 13.88 2.66 25.76 3 38 C2.34 37.67 1.68 37.34 1 37 C0.67 24.79 0.34 12.58 0 0 Z " fill="#711E46" transform="translate(411,79)"/>
<path d="M0 0 C5.75 4.75 5.75 4.75 8 7 C6.02 7 4.04 7 2 7 C1.67 11.95 1.34 16.9 1 22 C1.66 22.33 2.32 22.66 3 23 C2.01 24.32 1.02 25.64 0 27 C-1.29776917 24.40446166 -1.12950035 22.49294473 -1.1328125 19.58984375 C-1.13410156 18.51798828 -1.13539063 17.44613281 -1.13671875 16.34179688 C-1.13285156 15.21837891 -1.12898437 14.09496094 -1.125 12.9375 C-1.12886719 11.81021484 -1.13273438 10.68292969 -1.13671875 9.52148438 C-1.13542969 8.45091797 -1.13414062 7.38035156 -1.1328125 6.27734375 C-1.13168457 5.28984131 -1.13055664 4.30233887 -1.12939453 3.28491211 C-1 1 -1 1 0 0 Z " fill="#7B224E" transform="translate(153,291)"/>
<path d="M0 0 C-1.37817497 3.13186511 -2.9439119 5.13617198 -5.44140625 7.4609375 C-6.10720703 8.09773438 -6.77300781 8.73453125 -7.45898438 9.390625 C-8.85950859 10.71182519 -10.26577044 12.02697001 -11.67773438 13.3359375 C-15.80628198 17.27485475 -15.80628198 17.27485475 -17.96484375 22.4765625 C-17.97644531 23.30929687 -17.98804688 24.14203125 -18 25 C-18.99 23.68 -19.98 22.36 -21 21 C-19.54758264 17.66765426 -17.7149914 15.45774394 -15.15625 12.890625 C-14.40472656 12.13652344 -13.65320313 11.38242187 -12.87890625 10.60546875 C-12.09386719 9.82816406 -11.30882812 9.05085938 -10.5 8.25 C-9.71496094 7.45722656 -8.92992187 6.66445313 -8.12109375 5.84765625 C-7.36957031 5.09871094 -6.61804688 4.34976562 -5.84375 3.578125 C-4.81024414 2.54800293 -4.81024414 2.54800293 -3.75585938 1.49707031 C-2 0 -2 0 0 0 Z " fill="#731C46" transform="translate(233,295)"/>
<path d="M0 0 C4.48688907 0.5278693 7.73727501 1.29491 12 3 C12 6.96 12 10.92 12 15 C11.67 15 11.34 15 11 15 C10.6596875 13.63875 10.6596875 13.63875 10.3125 12.25 C8.81149298 8.5332207 7.16878017 7.33489065 4 5 C4 4.34 4 3.68 4 3 C2.68 2.67 1.36 2.34 0 2 C0 1.34 0 0.68 0 0 Z " fill="#F5E8F0" transform="translate(435,138)"/>
<path d="M0 0 C2.4375 2 2.4375 2 4 4 C3.01 4 2.02 4 1 4 C1 3.34 1 2.68 1 2 C-4.01535052 2.32960216 -4.01535052 2.32960216 -8 5 C-8.2500773 7.54190002 -8.2500773 7.54190002 -8 10 C-6.50256881 11.49743119 -5.01175761 11.33202693 -2.9375 11.5625 C-1.638125 11.706875 -0.33875 11.85125 1 12 C0.67 12.66 0.34 13.32 0 14 C-3.14711179 14.2145758 -5.44617664 14.23318878 -8.375 13 C-10.57713531 10.28967961 -10.51345108 8.29116834 -10.3125 4.875 C-10 3 -10 3 -8.9375 1 C-5.82090489 -0.60856522 -3.43737531 -0.42213381 0 0 Z " fill="#74234B" transform="translate(168,279)"/>
<path d="M0 0 C0.99 0 1.98 0 3 0 C3.08097324 2.27024968 3.13917704 4.54132075 3.1875 6.8125 C3.22230469 8.07707031 3.25710938 9.34164062 3.29296875 10.64453125 C3 14 3 14 1.48828125 15.94921875 C0.99714844 16.29597656 0.50601562 16.64273438 0 17 C-0.19386492 14.35448944 -0.38038267 11.70882217 -0.5625 9.0625 C-0.61857422 8.30775391 -0.67464844 7.55300781 -0.73242188 6.77539062 C-0.86176157 4.85254042 -0.93516912 2.92610452 -1 1 C-0.67 0.67 -0.34 0.34 0 0 Z " fill="#FEF4FC" transform="translate(398,79)"/>
<path d="M0 0 C1.98 0.495 1.98 0.495 4 1 C3.34 1 2.68 1 2 1 C2.66 2.32 3.32 3.64 4 5 C5.98 5 7.96 5 10 5 C10 5.33 10 5.66 10 6 C9.2575 5.979375 8.515 5.95875 7.75 5.9375 C4.87605673 6.72134074 4.87605673 6.72134074 3.77734375 9.0703125 C2.77653611 11.3588977 1.84934229 13.65126015 1 16 C0.67 16 0.34 16 0 16 C0 10.66666667 0 5.33333333 0 0 Z " fill="#78204B" transform="translate(157,347)"/>
<path d="M0 0 C0.598125 0.226875 1.19625 0.45375 1.8125 0.6875 C1.8125 2.6675 1.8125 4.6475 1.8125 6.6875 C-0.1675 6.6875 -2.1475 6.6875 -4.1875 6.6875 C-4.875 4.875 -4.875 4.875 -5.1875 2.6875 C-3.58493056 0.24147296 -2.95482043 -0.4221172 0 0 Z " fill="#831449" transform="translate(367.1875,142.3125)"/>
<path d="M0 0 C0.66 0 1.32 0 2 0 C2.07347656 1.13888672 2.07347656 1.13888672 2.1484375 2.30078125 C2.22320312 3.29464844 2.29796875 4.28851563 2.375 5.3125 C2.44460937 6.29863281 2.51421875 7.28476562 2.5859375 8.30078125 C2.83865472 11.21528433 2.83865472 11.21528433 5 14 C3.35 13.67 1.7 13.34 0 13 C0 8.71 0 4.42 0 0 Z " fill="#6F2146" transform="translate(167,298)"/>
<path d="M0 0 C0.66 0.33 1.32 0.66 2 1 C-1.465 3.97 -1.465 3.97 -5 7 C-3.75023244 3.34683329 -3.32901247 2.21934164 0 0 Z M-7 5 C-5.01016772 8.97966457 -4.77599284 9.67675132 -5.375 13.75 C-5.48585937 14.54921875 -5.59671875 15.3484375 -5.7109375 16.171875 C-5.80632812 16.77515625 -5.90171875 17.3784375 -6 18 C-6.33 18 -6.66 18 -7 18 C-7 13.71 -7 9.42 -7 5 Z " fill="#E1C8D7" transform="translate(159,311)"/>
<path d="M0 0 C1.98 0.495 1.98 0.495 4 1 C3.34 1 2.68 1 2 1 C2.33 2.98 2.66 4.96 3 7 C1.68 7 0.36 7 -1 7 C-0.67 4.69 -0.34 2.38 0 0 Z " fill="#934A6E" transform="translate(157,347)"/>
<path d="M0 0 C0.66 0 1.32 0 2 0 C1.67 0.66 1.34 1.32 1 2 C0.67 1.34 0.34 0.68 0 0 Z " fill="#771D49" transform="translate(444,85)"/>
<path d="" fill="#8F3661" transform="translate(0,0)"/>
<path d="M0 0 C2 1 2 1 2 1 Z " fill="#801548" transform="translate(170,72)"/>
<path d="" fill="#AE638A" transform="translate(0,0)"/>
<path d="" fill="#6C0B39" transform="translate(0,0)"/>
<path d="" fill="#68314D" transform="translate(0,0)"/>
<path d="" fill="#782C52" transform="translate(0,0)"/>
<path d="" fill="#A15C7E" transform="translate(0,0)"/>
<path d="" fill="#A35C7F" transform="translate(0,0)"/>
<path d="" fill="#A75A80" transform="translate(0,0)"/>
<path d="" fill="#994B71" transform="translate(0,0)"/>
<path d="" fill="#70103D" transform="translate(0,0)"/>
<path d="" fill="#78264E" transform="translate(0,0)"/>
<path d="" fill="#802551" transform="translate(0,0)"/>
<path d="" fill="#9F4B76" transform="translate(0,0)"/>
<path d="" fill="#7F1548" transform="translate(0,0)"/>
<path d="" fill="#7F1548" transform="translate(0,0)"/>
<path d="" fill="#7B244E" transform="translate(0,0)"/>
<path d="" fill="#932159" transform="translate(0,0)"/>
<path d="" fill="#933C66" transform="translate(0,0)"/>
<path d="" fill="#8A365F" transform="translate(0,0)"/>
<path d="" fill="#94426A" transform="translate(0,0)"/>
<path d="" fill="#933C66" transform="translate(0,0)"/>
<path d="" fill="#88335C" transform="translate(0,0)"/>
<path d="" fill="#913B65" transform="translate(0,0)"/>
<path d="" fill="#7F1548" transform="translate(0,0)"/>
<path d="" fill="#7F1548" transform="translate(0,0)"/>
</svg>
